{
  "accessors": [
    {
      "bufferView": 2,
      "componentType": 5126,
      "count": 990,
      "max": [
        0.19153200089931488,
        0.16305400431156158,
        1
      ],
      "min": [
        -0.19153200089931488,
        -0.21308299899101257,
        0.95178300142288208
      ],
      "type": "VEC3"
    },
    {
      "bufferView": 2,
      "byteOffset": 11880,
      "componentType": 5126,
      "count": 990,
      "max": [
        0.99946528673171997,
        0.99905002117156982,
        0.99540060758590698
      ],
      "min": [
        -0.99899381399154663,
        -0.99769043922424316,
        -0.99345749616622925
      ],
      "type": "VEC3"
    },
    {
      "bufferView": 3,
      "componentType": 5126,
      "count": 990,
      "max": [
        0.99964702129364014,
        0.98172998428344727,
        0.99999499320983887,
        1
      ],
      "min": [
        -0.99936801195144653,
        -0.99244499206542969,
        -0.99995899200439453,
        1
      ],
      "type": "VEC4"
    },
    {
      "bufferView": 1,
      "componentType": 5126,
      "count": 990,
      "max": [
        0.99949997663497925,
        0.99900001287460327
      ],
      "min": [
        0.00050000002374872565,
        0.00050000002374872565
      ],
      "type": "VEC2"
    },
    {
      "bufferView": 0,
      "componentType": 5125,
      "count": 2064,
      "max": [
        989
      ],
      "min": [
        0
      ],
      "type": "SCALAR"
    },
    {
      "bufferView": 2,
      "byteOffset": 23760,
      "componentType": 5126,
      "count": 1215,
      "max": [
        0.30355900526046753,
        0.29313600063323975,
        0.98167598247528076
      ],
      "min": [
        -0.30355900526046753,
        -0.29313600063323975,
        -1
      ],
      "type": "VEC3"
    },
    {
      "bufferView": 2,
      "byteOffset": 38340,
      "componentType": 5126,
      "count": 1215,
      "max": [
        0.99989521503448486,
        0.99998354911804199,
        0.99658787250518799
      ],
      "min": [
        -0.99942946434020996,
        -0.99971550703048706,
        -0.97002536058425903
      ],
      "type": "VEC3"
    },
    {
      "bufferView": 3,
      "byteOffset": 15840,
      "componentType": 5126,
      "count": 1215,
      "max": [
        1,
        0.99955397844314575,
        0.99473297595977783,
        1
      ],
      "min": [
        -0.99997198581695557,
        -0.99978798627853394,
        -0.99810898303985596,
        1
      ],
      "type": "VEC4"
    },
    {
      "bufferView": 1,
      "byteOffset": 7920,
      "componentType": 5126,
      "count": 1215,
      "max": [
        0.99229997396469116,
        0.98519998788833618
      ],
      "min": [
        0.012099999934434891,
        0.019799999892711639
      ],
      "type": "VEC2"
    },
    {
      "bufferView": 0,
      "byteOffset": 8256,
      "componentType": 5125,
      "count": 6420,
      "max": [
        1214
      ],
      "min": [
        0
      ],
      "type": "SCALAR"
    }
  ],
  "asset": {
    "extras": {
      "author": "shedmon (https://sketchfab.com/shedmon)",
      "license": "CC-BY-4.0 (http://creativecommons.org/licenses/by/4.0/)",
      "source": "https://sketchfab.com/3d-models/death-worm-8054ab29b40e4cdbb3b2daf9cacc5688",
      "title": "Death Worm"
    },
    "generator": "Sketchfab-9.77.0",
    "version": "2.0"
  },
  "bufferViews": [
    {
      "buffer": 0,
      "byteLength": 33936,
      "byteOffset": 0,
      "name": "floatBufferViews",
      "target": 34963
    },
    {
      "buffer": 0,
      "byteLength": 17640,
      "byteOffset": 33936,
      "byteStride": 8,
      "name": "floatBufferViews",
      "target": 34962
    },
    {
      "buffer": 0,
      "byteLength": 52920,
      "byteOffset": 51576,
      "byteStride": 12,
      "name": "floatBufferViews",
      "target": 34962
    },
    {
      "buffer": 0,
      "byteLength": 35280,
      "byteOffset": 104496,
      "byteStride": 16,
      "name": "floatBufferViews",
      "target": 34962
    }
  ],
  "buffers": [
    {
      "byteLength": 139776,
      "uri": "scene.bin"
    }
  ],
  "images": [
    {
      "uri": "textures/worm_baseColor.jpeg"
    },
    {
      "uri": "textures/worm_metallicRoughness.png"
    },
    {
      "uri": "textures/worm_normal.jpeg"
    },
    {
      "uri": "textures/Teeth_baseColor.jpeg"
    },
    {
      "uri": "textures/Teeth_metallicRoughness.png"
    },
    {
      "uri": "textures/Teeth_normal.jpeg"
    }
  ],
  "materials": [
    {
      "doubleSided": true,
      "emissiveFactor": [
        0,
        0,
        0
      ],
      "name": "worm",
      "normalTexture": {
        "index": 2,
        "scale": 1,
        "texCoord": 0
      },
      "occlusionTexture": {
        "index": 1,
        "strength": 1,
        "texCoord": 0
      },
      "pbrMetallicRoughness": {
        "baseColorFactor": [
          1,
          1,
          1,
          1
        ],
        "baseColorTexture": {
          "index": 0,
          "texCoord": 0
        },
        "metallicFactor": 1,
        "metallicRoughnessTexture": {
          "index": 1,
          "texCoord": 0
        },
        "roughnessFactor": 1
      }
    },
    {
      "doubleSided": true,
      "emissiveFactor": [
        0,
        0,
        0
      ],
      "name": "Teeth",
      "normalTexture": {
        "index": 5,
        "scale": 1,
        "texCoord": 0
      },
      "occlusionTexture": {
        "index": 4,
        "strength": 1,
        "texCoord": 0
      },
      "pbrMetallicRoughness": {
        "baseColorFactor": [
          1,
          1,
          1,
          1
        ],
        "baseColorTexture": {
          "index": 3,
          "texCoord": 0
        },
        "metallicFactor": 1,
        "metallicRoughnessTexture": {
          "index": 4,
          "texCoord": 0
        },
        "roughnessFactor": 1
      }
    }
  ],
  "meshes": [
    {
      "name": "defaultMaterial",
      "primitives": [
        {
          "attributes": {
            "NORMAL": 1,
            "POSITION": 0,
            "TANGENT": 2,
            "TEXCOORD_0": 3
          },
          "indices": 4,
          "material": 1,
          "mode": 4
        }
      ]
    },
    {
      "name": "defaultMaterial",
      "primitives": [
        {
          "attributes": {
            "NORMAL": 6,
            "POSITION": 5,
            "TANGENT": 7,
            "TEXCOORD_0": 8
          },
          "indices": 9,
          "material": 0,
          "mode": 4
        }
      ]
    }
  ],
  "nodes": [
    {
      "children": [
        1
      ],
      "name": "RootNode (gltf orientation matrix)",
      "rotation": [
        -0.70710678118654746,
        -0,
        -0,
        0.70710678118654757
      ]
    },
    {
      "children": [
        2
      ],
      "matrix": [
        2.6482758522033691,
        0,
        0,
        0,
        0,
        2.6482758522033691,
        0,
        0,
        0,
        0,
        2.6482758522033691,
        0,
        0,
        0,
        0,
        1
      ],
      "name": "RootNode (model correction matrix)"
    },
    {
      "children": [
        3,
        5
      ],
      "matrix": [
        1,
        0,
        0,
        0,
        0,
        -4.3711390063094768e-08,
        0.999999999999999,
        0,
        0,
        -0.999999999999999,
        -4.3711390063094768e-08,
        0,
        0,
        0,
        0,
        1
      ],
      "name": "Collada visual scene group"
    },
    {
      "children": [
        4
      ],
      "name": "g"
    },
    {
      "mesh": 0,
      "name": "defaultMaterial"
    },
    {
      "children": [
        6
      ],
      "name": "g"
    },
    {
      "mesh": 1,
      "name": "defaultMaterial"
    }
  ],
  "samplers": [
    {
      "magFilter": 9729,
      "minFilter": 9987,
      "wrapS": 10497,
      "wrapT": 10497
    }
  ],
  "scene": 0,
  "scenes": [
    {
      "name": "OSG_Scene",
      "nodes": [
        0
      ]
    }
  ],
  "textures": [
    {
      "sampler": 0,
      "source": 0
    },
    {
      "sampler": 0,
      "source": 1
    },
    {
      "sampler": 0,
      "source": 2
    },
    {
      "sampler": 0,
      "source": 3
    },
    {
      "sampler": 0,
      "source": 4
    },
    {
      "sampler": 0,
      "source": 5
    }
  ]
}

